<svg id="Layer_1" data-name="Layer 1" xmlns="http://www.w3.org/2000/svg" viewBox="0 0 1280 1280"><path d="M116.9,610.4c2.7-20.1,4.4-40.4,8.2-60.3q47.6-248,269-369.9c82.7-45.5,172.5-65.4,266.7-60.6,147.7,7.4,271.6,66.6,369.9,177.1,74.1,83.2,117.1,181.2,127.5,291.9,14.5,154.6-30.7,290.8-135.4,405.8-81,88.9-182.2,142.1-300.8,162.1-17.4,3-35,4.5-52.4,6.6H608.4c-2.6-.5-5.2-1.5-7.9-1.6-64.1-4.3-125.5-19.5-183-47.9-160.1-78.9-258.1-206.2-292.4-381.7-3.9-19.9-5.5-40.2-8.2-60.3Zm907.4-270.8-83.8-83.7L919,285.2l-28-20.3L912.3,235,806.9,181.3l-11.8,34.6-32.6-10.6c3.5-11.2,6.6-21.5,10-32.6a469,469,0,0,0-116.2-18.2v33.3h-35V154.5a455.3,455.3,0,0,0-115.8,18.4c3.3,11.1,6.5,21.7,9.7,32.6l-32.4,10.4-11.2-32.3c-37.5,14-71.9,31.1-104.4,53.5L387,264.7,359.1,285l-21.4-28.5c-20.2,19.5-39.6,37.9-58.6,56.9-8.3,8.3-15.4,17.8-23.6,27.3,9.5,7.1,18.4,13.6,27.7,20.4-7.3,9.9-13.7,18.8-20.4,28l-27.8-20c-22.1,33.4-40.2,67.6-53.3,104.8l32.1,11c-3.6,11.3-7,21.5-10.6,32.5l-32.6-9.9c-10.7,38.6-17.2,76.3-18,116.4h33.2v35H149.9l18.5,116.4,35-10.6c3.7,11.3,7,21.6,10.5,32.5l-34.7,12,53.7,104.9L262.8,893l20,28-29,21.6,83.6,83.5,21.7-29.2,27.9,20.3L367.1,1045c33.3,22.3,67.5,40.3,104.8,53.4,3.8-11.3,7.3-21.5,11-32.3l32.5,10.7-9.9,32.5c38.5,10.9,76.3,17.2,116.3,18.1v-33.3h35.1v33.6c40.2-1.7,78.1-7.3,115.7-18.6l-9.9-32.4,32.4-10.5,12,34.7L912.2,1047c-8.2-11.5-14.6-20.4-21.2-29.8l28-20.1,20.8,27.9c15.9-14.7,31.6-28.3,46.2-42.9,12.7-12.7,24.1-26.5,36.8-40.6l-28-20.6,20.4-28,27.7,19.9c22.4-33.2,40.3-67.5,53.4-104.8l-32.2-10.9c3.7-11.2,7-21.4,10.6-32.5l32.6,9.9c10.8-38.4,17.2-76.2,18.1-116.2h-33.3V623.2h33.5c-1.7-40.2-7.2-78.2-18.5-115.8l-32.4,10-10.5-32.5,32.3-11.2c-13.9-37.4-31.2-71.7-53.5-104.3l-27.7,19.8-20.3-28Z"/><path d="M1021.9,640.9c-1.8,211.7-168.6,382.3-382.5,382.6S256.2,853.9,256.5,640.7,427.2,258.4,639,258.5,1019.8,428.3,1021.9,640.9Zm-382.6-348c-190.2,1.2-347.2,150.9-348.1,347.2-.8,190.4,150.6,348.2,347.4,348.7,189.9.4,347.2-150.7,348.1-347C987.6,451.1,835.7,295,639.3,292.9Z"/><path d="M638.9,345.3c162.6-.1,295.8,133,295.8,295.7S801.9,936.7,639,936.8,343.3,804,343.2,641.1,475.9,345.4,638.9,345.3ZM435.3,478.4l5,4.6c26.6,22.8,53.3,45.4,79.6,68.5,17.1,15.1,23.3,34.3,16.1,56.1s-23.2,33.8-46.2,35.8-46.7,3.9-70,5.9c-13.7,1.1-27.4,2.4-41.2,3.7,2.7,48.7,16.7,91.9,42.8,131.5l10.5-6.2c28.1-17.2,56-34.7,84.4-51.4,32.4-19,71.4-3.5,78.7,31.7,2.2,10.8.3,23-2.1,34.1-7.1,33.1-15.3,65.9-23.3,99.5,46.6,13,92.2,13.1,138.4.1-.4-2.1-.5-3.4-.8-4.6-8-34-16.5-68-23.8-102.1-2-9-2.4-19.2-.3-28.1,8.3-34.6,46.5-49.4,78.6-30.5,25.8,15.1,51.1,31,76.6,46.6l18.3,11.1C882.9,744.1,897,701,899.2,653c-5.9-.6-11.2-1.3-16.6-1.7-32.5-2.8-65-5.1-97.4-8.3-22.4-2.1-39.6-18.3-44.5-40.2s3.5-39.7,20.3-54l81.7-70.2c-30-37.4-67-64.2-112-81.5-1.7,4-3.1,7-4.4,10-12.3,29.5-24.2,59.1-37,88.2-3.8,8.6-8.8,17.3-15.4,23.6-26.8,25.6-68.3,15.7-83.8-19.7-13.3-30.5-25.7-61.4-38.6-92-1.3-3.3-2.9-6.5-4.6-10.1C501.8,414.7,465,441.4,435.3,478.4Zm261.5-91.3c-39-9.1-76.8-9.2-115.2-.1.8,2.5,1.3,4.4,2.1,6.3q18.6,45,37.4,90.1c3.3,8.1,8,14.5,17.6,14.7s14.9-6.6,18.3-15l29.2-70.5C689.7,404.3,693.2,395.9,696.8,387.1Zm137.4,426c-.8-1.1-1.1-1.8-1.6-2.1l-85.9-52.6c-7.7-4.7-15.4-7.6-23.6-1.7s-7.9,14.4-5.8,23c5.1,21.8,10.3,43.5,15.6,65.3,2.8,11.7,5.7,23.3,8.5,35.1C772.8,868.4,807.8,843,834.2,813.1ZM415.4,507.4c-20.1,34.7-32.6,70.3-35.7,110.4,37.4-3.2,73.6-5.8,109.6-9.8,4.9-.6,11.9-7,13.1-11.8s-1.2-14.2-5.2-17.9C470.7,554.4,443.4,531.5,415.4,507.4Zm27.6,305c26.5,29.9,56.9,52.5,93.7,68.2,8.4-35.9,17.1-71.1,24.4-106.5,1.1-5.3-2.9-13.2-7-17.5-5.9-5.9-13.8-3.6-20.7.5l-62.5,38.2ZM862.5,507.6,783,575.7c-6.2,5.4-10.7,11.6-8.1,20.4s9.6,12.3,18.5,13l96.4,7.7c2.5.2,5.1,0,8.5,0C894.7,577.5,882.9,541.9,862.5,507.6Z"/><path d="M639.1,571.6a69.6,69.6,0,0,1,69.3,69.5c-.1,38.2-31.4,69.4-69.5,69.3a69.5,69.5,0,0,1-69.3-69.5C569.6,602.7,600.9,571.6,639.1,571.6Zm-34.8,69.8a34.7,34.7,0,1,0,34.8-35A34.7,34.7,0,0,0,604.3,641.4Z"/></svg>