<svg id="Layer_1" data-name="Layer 1" xmlns="http://www.w3.org/2000/svg" viewBox="0 0 1280 1280"><path d="M468.4,329.1c0-42-.1-84.1.1-126.3.1-8.8.4-17.7,2-26.4,8.3-44.9,46.8-78.1,92.6-78.2q281.9-.6,563.6,0c52.2.1,94.1,42.5,94.6,94.8.7,65.2.6,130.3.1,195.5-.5,52.1-37.8,89.7-95.4,96.2,1.8,3.3,3.9,6,4.8,9.1,4.7,16,12.5,32.1,12.9,48.2,1.4,64.4.6,128.7.6,193.1-.1,20.6-6.8,39.3-18.8,56.8,8.9,1.6,16.8,2.5,24.4,4.5,40.8,10.7,70.9,47.6,71.3,89.8.7,66.7.9,133.5,0,200.3-.7,48.8-41,90.8-89.7,92-65.9,1.6-131.9.4-198.7.4v-38.4h12.7c59.6,0,119.1.2,178.6-.1,33-.2,57.8-24.6,58.3-57.8h-13q-200.4,0-400.7.3c-6.8,0-14.4,3.3-20.4,7.1-26.1,16.4-51.7,33.5-77.2,50.1H815.3v39H803.2q-158.1,0-316.2,0c-213.4-.4-393.3-160.3-419.8-372.9C39.7,585.6,188.1,380.6,406.5,337.7,426.6,333.7,447,332,468.4,329.1ZM873.9,754.6c0-213-172.8-386.1-385.7-386.3s-386.9,173-386.6,386.4,173.5,386.1,386.2,385.8S874,967.4,873.9,754.6ZM933,233.1V194.3h249.6c-.2-3.7,0-6.5-.5-9.2-5.3-29.6-29-48.5-61.2-48.5h-560c-29.8,2.1-53,26.7-53.3,58.2h385v38.6h-385V271H1182V233.1Zm249.4,78.1H507.9v16.9c29.1,5.2,57.1,10.5,85.2,15.1,15.3,2.6,30.8,5.5,46.3,5.5q264.2.6,528.4.3h14.6Zm0,77H706.6c21.6,16.8,43.1,34,65.3,50.4,4.9,3.6,11.9,6.5,18,6.6,31.3.6,62.7.3,94.1.3,79.6,0,159.2.1,238.8-.1C1156.9,445.4,1181.7,421.6,1182.4,388.2Zm-291,500.7h290.9c-.3-32.4-25.2-57-58-57.1-48.2-.3-96.4-.1-144.6-.1H906.1C901.2,850.9,896.4,869.4,891.4,888.9Zm213.4-347.4c1-31.8-24.8-57.3-58.5-57.3-73.9-.2-147.9-.1-221.8-.1-2.2,0-4.3.3-7.2.5,11.5,16.9,22.7,32.5,32.8,48.8,4.2,6.6,8.6,8.8,16.3,8.8,75.9-.3,151.9-.2,227.8-.2C1097.7,542,1101.3,541.7,1104.8,541.5ZM800.2,1043.1h382.1v-36.8a20.7,20.7,0,0,0-3.9-.9q-170.7,0-341.5.1a13.6,13.6,0,0,0-9.2,4C818.5,1020,809.9,1031.1,800.2,1043.1ZM1182.3,929c-100.9-.3-201-.6-301.1-.7-2.5,0-6.2,2-7.4,4.1-5.9,10.8-11.2,21.9-17.1,33.7h325.6Zm-77.2-193.2H912v57c47.4,0,94.3,1,141.2-.4C1082.5,791.5,1104.9,765.6,1105.1,735.8Zm-229-154.9c3.9,10.6,7.9,19.4,10.5,28.6s6.8,10,14.8,9.9c64.3-.3,128.7-.2,193-.2,3.5,0,6.9-.4,10.4-.6V580.9Zm228.7,115.3V658.3h-203c2.4,13,4.6,25.4,6.8,37.9Z"/><path d="M892.2,1178.8H855.6v-37.5h36.6Z"/><path d="M488.3,445.5c170.5.3,308.7,139.3,308.3,310S657,1063.7,487.2,1063.2s-309-139.7-308.3-310S318.2,445.2,488.3,445.5ZM267.9,589.2c33,32.9,61.3,61.4,89.9,89.7,7,6.9,12,14.3,7.9,24.5s-13.3,12.5-23.7,12.5c-29.8-.3-59.5-.1-89.3-.1H219.5V793c42.7,0,83.2.1,123.8-.1,10.1-.1,18.5,2.4,22.5,12.4s-.3,17-7.1,23.7c-21.7,21.5-43.2,43.2-64.9,64.7-7.4,7.3-15.1,14.2-24.5,22.9L327,974.1c4.1-6.1,6.1-10.2,9.2-13.3,25.1-25.5,50.6-50.7,75.7-76.2,7.3-7.3,14.8-12.6,25.5-7.9s11.9,13,11.8,22.9c-.2,28.6-.1,57.1-.1,85.6v37.5h77.3v-14.9c0-36.2.1-72.4-.1-108.6-.1-10,1.9-18.5,12-22.8s17.6.4,24.6,7.5c25.8,26,51.7,51.8,77.6,77.7,3,3,6.2,5.8,10.9,10.1L705,917.3c-30.7-30.7-59-59.3-87.5-87.6-7-7-11.8-14.4-7.6-24.6s12.6-12.3,22.6-12.2c36.6.2,73.2.1,109.8.1h13.6V715.8H633.2c-9.9.1-18.6-1.6-23-11.7s.6-18.3,7.9-25.5c25.7-25.4,51.3-51.1,76.9-76.7,3-3,5.8-6.2,10.2-10.9l-54.6-54c-30.4,30.3-58.6,58.4-86.6,86.7-7.1,7.2-14.6,13-25.4,8.6s-12.4-13.4-12.3-23.8c.2-36.2.1-72.3.1-108.5V486.3H449.1c0,42.3-.1,82.5.1,122.7.1,10.4-2,19.4-12.7,23.5s-17.6-1.3-24.5-8.3c-25.4-25.7-51.1-51.3-76.6-76.9-3.1-3-6.3-5.8-12.8-11.9Zm142.2-94.8-47.8,20.2,47.8,47.8Zm156,.5V563c15.6-15.5,31.6-31.5,48.3-48.3ZM296.6,676.6c-15.9-16-31.8-32.1-48.4-48.7L228,676.6ZM227.8,831.9l20.1,48,47.3-48ZM410,945.2c-16.2,16-32.2,32-48.9,48.6l48.9,20.3Zm155.4,69,48-20-48-48ZM678.1,676.3h69.5c-7.4-17.5-14.2-33.4-20.7-48.9Zm49,205.3,20.2-49.3H677.8C694,848.4,709.9,864.4,727.1,881.6Z"/><path d="M487.4,812.2c-31.4,0-57.5-26.1-57.5-57.5a58.1,58.1,0,0,1,58.2-58.2c31.5.2,57.4,26.1,57.5,57.6A58.1,58.1,0,0,1,487.4,812.2ZM507,754.1a19.3,19.3,0,1,0-18.7,19.5A19.3,19.3,0,0,0,507,754.1Z"/><path d="M506,676.9H469.4V639.4H506Z"/><path d="M409.5,773.3H372.6V735.7h36.9Z"/><path d="M603.1,735.9V773H566V735.9Z"/><path d="M506.5,832.2v37.2H469.2V832.2Z"/></svg>